HIERARCHY
ROOT root
{
	OFFSET 0.000000 0.000000 0.000000
	CHANNELS 6 Xposition Yposition Zposition Zrotation Yrotation Xrotation
	JOINT lhip
	{
		OFFSET 0.058581 -0.082280 -0.017664
		CHANNELS 3 Zrotation Yrotation Xrotation
		JOINT lknee
		{
			OFFSET 0.043451 -0.386469 0.008037
			CHANNELS 3 Zrotation Yrotation Xrotation
			JOINT lankle
			{
				OFFSET -0.014790 -0.426874 -0.037428
				CHANNELS 3 Zrotation Yrotation Xrotation
				JOINT ltoe
				{
					OFFSET 0.041054 -0.060286 0.122042
					CHANNELS 3 Zrotation Yrotation Xrotation
					End Site
					{
						OFFSET 0.000000 0.000000 0.000000
					}
				}
			}
		}
	}
	JOINT rhip
	{
		OFFSET -0.060310 -0.090513 -0.013543
		CHANNELS 3 Zrotation Yrotation Xrotation
		JOINT rknee
		{
			OFFSET -0.043257 -0.383688 -0.004843
			CHANNELS 3 Zrotation Yrotation Xrotation
			JOINT rankle
			{
				OFFSET 0.019056 -0.420046 -0.034562
				CHANNELS 3 Zrotation Yrotation Xrotation
				JOINT rtoe
				{
					OFFSET -0.034840 -0.062106 0.130323
					CHANNELS 3 Zrotation Yrotation Xrotation
					End Site
					{
						OFFSET 0.000000 0.000000 0.000000
					}
				}
			}
		}
	}
	JOINT lowerback
	{
		OFFSET 0.004439 0.124404 -0.038385
		CHANNELS 3 Zrotation Yrotation Xrotation
		JOINT upperback
		{
			OFFSET 0.004488 0.137956 0.026820
			CHANNELS 3 Zrotation Yrotation Xrotation
			JOINT chest
			{
				OFFSET -0.002265 0.056032 0.002855
				CHANNELS 3 Zrotation Yrotation Xrotation
				JOINT lowerneck
				{
					OFFSET -0.013390 0.211636 -0.033468
					CHANNELS 3 Zrotation Yrotation Xrotation
					JOINT upperneck
					{
						OFFSET 0.010113 0.088937 0.050410
						CHANNELS 3 Zrotation Yrotation Xrotation
						End Site
						{
							OFFSET 0.000000 0.000000 0.000000
						}
					}
				}
				JOINT lclavicle
				{
					OFFSET 0.071702 0.114000 -0.018898
					CHANNELS 3 Zrotation Yrotation Xrotation
					JOINT lshoulder
					{
						OFFSET 0.122921 0.045205 -0.019046
						CHANNELS 3 Zrotation Yrotation Xrotation
						JOINT lelbow
						{
							OFFSET 0.255332 -0.015649 -0.022946
							CHANNELS 3 Zrotation Yrotation Xrotation
							JOINT lwrist
							{
								OFFSET 0.265709 0.012698 -0.007375
								CHANNELS 3 Zrotation Yrotation Xrotation
								End Site
								{
									OFFSET 0.000000 0.000000 0.000000
								}
							}
						}
					}
				}
				JOINT rclavicle
				{
					OFFSET -0.082954 0.112472 -0.023707
					CHANNELS 3 Zrotation Yrotation Xrotation
					JOINT rshoulder
					{
						OFFSET -0.113228 0.046853 -0.008472
						CHANNELS 3 Zrotation Yrotation Xrotation
						JOINT relbow
						{
							OFFSET -0.260127 -0.014369 -0.031269
							CHANNELS 3 Zrotation Yrotation Xrotation
							JOINT rwrist
							{
								OFFSET -0.269108 0.006794 -0.006027
								CHANNELS 3 Zrotation Yrotation Xrotation
								End Site
								{
									OFFSET 0.000000 0.000000 0.000000
								}
							}
						}
					}
				}
			}
		}
	}
}
MOTION
Frames: 18
Frame Time: 0.033333
1.764689 0.635445 0.989679 -88.523176 3.029380 85.087584 1.415290 -0.605412 8.036110 -2.294764 -15.785687 3.205339 4.537188 8.066906 -16.521483 0.000000 -0.000000 0.000000 4.454078 -2.975235 6.765359 3.939103 1.510509 4.359325 2.848380 -5.312335 -11.466425 0.000000 -0.000000 0.000000 -1.161008 2.069460 6.070058 1.492098 -1.587803 2.475505 0.896539 -1.627487 5.809207 5.751959 -2.461366 -1.285095 3.720464 -7.093084 6.044600 -26.908810 8.632680 1.189603 -60.826232 -3.950384 5.985925 10.699258 -22.076286 1.413216 -2.141954 -0.802180 -9.198384 24.505515 -6.292261 -1.880205 62.027222 -0.266029 10.594122 -15.400162 28.364264 -5.120070 5.721786 0.712729 -9.787786 
1.763841 0.635412 0.989859 -88.244207 3.165887 84.928312 1.663317 -0.467007 8.292364 -2.367595 -16.052864 3.132344 4.191849 7.830440 -16.604245 0.000000 -0.000000 0.000000 4.607749 -3.196645 7.118930 3.922202 1.425103 4.165696 2.836907 -5.289517 -11.522362 0.000000 -0.000000 0.000000 -1.115203 2.013007 6.239353 1.554924 -1.558416 2.465015 0.969229 -1.636249 5.886113 5.963297 -2.458465 -1.655849 3.784834 -7.379163 6.080848 -26.872675 8.702147 1.039777 -60.839626 -4.078740 6.049177 10.824338 -21.921387 1.423413 -2.219851 -1.022770 -9.309774 24.639296 -6.256529 -1.949148 61.932343 -0.509610 10.470186 -15.330569 26.969050 -5.043645 5.600711 0.593258 -9.421716 
1.764499 0.635389 0.989698 -88.232031 3.101283 85.094163 1.565344 -0.694333 8.089913 -2.360975 -15.959483 3.092082 4.253087 7.986839 -16.555746 0.000000 -0.000000 0.000000 4.596884 -2.880648 6.845524 3.931563 1.235743 4.268981 2.843303 -5.395119 -11.584193 0.000000 -0.000000 0.000000 -1.155901 2.087383 6.174711 1.566001 -1.499277 2.374179 0.946033 -1.627127 5.954535 6.006475 -2.567890 -1.714172 3.727467 -7.582683 6.059649 -26.800191 8.737494 1.046044 -60.795588 -4.330432 6.138548 10.885504 -21.998236 1.423580 -2.405937 -1.036661 -9.311425 24.705350 -6.327401 -1.902317 61.994391 -0.531919 10.340270 -15.137818 25.511016 -5.152972 5.775159 0.795754 -9.394493 
1.764346 0.635027 0.989712 -88.085240 3.015476 85.096916 1.395575 -0.740149 8.152163 -2.240575 -16.043793 2.964852 4.163017 8.052646 -16.614053 0.000000 -0.000000 0.000000 4.485617 -2.739387 6.910370 3.976181 1.120529 4.234760 2.937963 -5.609746 -11.566122 0.000000 -0.000000 0.000000 -1.207007 2.093859 6.153608 1.558166 -1.432033 2.362218 0.948943 -1.664476 6.075358 6.170793 -2.702205 -2.114790 3.802068 -7.673595 5.967489 -26.854035 8.720720 0.977712 -60.687770 -4.605851 6.210702 11.029009 -22.242767 1.203437 -2.296737 -1.040466 -9.339547 24.805455 -6.422062 -1.989887 61.863928 -0.872416 10.287053 -14.795272 24.297930 -5.186944 6.067468 0.832044 -9.305896 
1.764540 0.635069 0.989669 -88.089623 2.987653 85.060221 1.385787 -0.754679 8.174837 -2.283536 -16.108240 2.976921 4.233647 8.034829 -16.540078 0.000000 -0.000000 0.000000 4.468000 -2.777935 6.903247 3.928495 1.092754 4.312337 2.876767 -5.493652 -11.624633 0.000000 -0.000000 0.000000 -1.225910 2.083916 6.233673 1.563375 -1.434719 2.374108 0.945559 -1.625033 5.958312 6.031082 -2.693560 -1.764144 3.746346 -7.578474 6.077330 -26.707999 8.682089 1.084361 -60.805355 -4.763546 6.208118 11.137687 -22.456020 1.221006 -2.402910 -1.026063 -9.574557 24.749708 -6.369922 -1.786253 61.982594 -0.921124 10.127660 -14.777252 23.506640 -5.161183 6.258313 0.854409 -9.272252 
1.764567 0.635333 0.989670 -88.133534 2.971382 85.144312 1.410162 -0.809175 8.118450 -2.355036 -16.115931 2.945322 4.355897 8.051296 -16.434005 0.000000 -0.000000 0.000000 4.467877 -2.741331 6.867834 3.946007 1.173716 4.166788 2.834690 -5.548552 -11.578842 0.000000 -0.000000 0.000000 -1.258891 2.078047 6.138456 1.546095 -1.426883 2.328380 0.960162 -1.577305 5.900608 5.978963 -2.829190 -1.613140 3.765428 -7.499177 6.013725 -26.592975 8.666474 1.275482 -60.841423 -4.997080 6.255565 11.194648 -22.884149 1.174902 -2.540877 -0.884248 -9.809610 24.510121 -6.339283 -1.509780 62.404161 -1.151278 10.028040 -14.896902 22.761299 -4.957243 6.535360 0.169254 -9.246966 
1.765009 0.635479 0.989663 -88.244088 2.970956 85.209863 1.404443 -0.816497 8.014825 -2.356644 -15.959136 2.942026 4.403628 8.172899 -16.525825 0.000000 -0.000000 0.000000 4.481779 -2.687010 6.673326 3.948237 1.116767 4.345029 2.830148 -5.484367 -11.639907 0.000000 -0.000000 0.000000 -1.286118 2.067798 6.131393 1.558107 -1.405537 2.265408 1.001754 -1.549390 6.000642 5.986781 -2.449111 -1.872382 3.887089 -7.347159 5.965242 -26.518709 8.672848 1.242328 -60.919154 -5.185853 6.402064 11.211535 -23.447204 1.110271 -2.434788 -0.897796 -9.893845 24.574310 -6.328737 -1.594681 62.357913 -1.180649 10.045660 -14.979155 22.175984 -4.983102 6.373373 -0.012813 -9.036723 
1.765673 0.635611 0.989581 -88.538289 2.916932 85.238865 1.330465 -0.859703 7.954814 -2.342775 -15.785311 2.939462 4.521106 8.273002 -16.450052 0.000000 -0.000000 0.000000 4.448821 -2.451046 6.468786 3.922760 1.046551 4.563237 2.837410 -5.330626 -11.653331 0.000000 -0.000000 0.000000 -1.303073 2.130724 6.196635 1.572494 -1.370145 2.225892 1.003016 -1.544144 5.907559 5.788057 -2.448618 -1.667965 3.894878 -7.317025 5.919495 -26.399478 8.598607 1.332257 -61.142457 -5.305896 6.507462 11.367193 -24.003350 1.189318 -2.538986 -0.822805 -9.963314 24.486469 -6.233338 -1.468157 62.452263 -1.154103 9.963924 -15.141256 22.001389 -4.991931 6.420836 0.013551 -8.960442 
1.765957 0.635670 0.989705 -88.676694 2.908194 85.316598 1.260405 -0.929075 7.901291 -2.239574 -15.745607 2.866136 4.505078 8.353275 -16.375329 0.000000 -0.000000 0.000000 4.448443 -2.324162 6.320980 3.931634 1.060555 4.621811 2.921909 -5.341140 -11.587014 0.000000 -0.000000 0.000000 -1.321734 2.087849 6.211274 1.582088 -1.359954 2.087332 1.018028 -1.549885 5.927106 5.897459 -2.255289 -1.995035 4.084871 -7.257613 6.042214 -26.374837 8.575325 1.223051 -61.181311 -5.461458 6.635820 11.335691 -24.310732 1.121992 -2.478761 -1.005656 -10.148243 24.535194 -6.297124 -1.578185 62.356374 -1.150002 10.074918 -15.189358 22.024314 -4.993603 6.338015 0.078257 -8.880720 
1.766528 0.635751 0.989762 -88.857605 2.872400 85.374792 1.222574 -0.896341 7.773889 -2.291116 -15.588587 2.911220 4.545393 8.401526 -16.338855 0.000000 -0.000000 0.000000 4.398337 -2.311341 6.164269 3.926370 1.086592 4.677368 2.989056 -5.244120 -11.583505 0.000000 -0.000000 0.000000 -1.325156 2.067115 6.283963 1.566322 -1.348460 1.910694 1.036406 -1.593027 5.853289 5.815184 -2.023413 -2.162916 4.161604 -7.152967 6.258414 -26.365536 8.433020 1.187838 -61.282382 -5.540221 6.804959 11.428674 -24.805814 1.115259 -2.114564 -0.876686 -10.017695 24.533970 -6.304395 -1.617447 62.256277 -1.178522 10.161171 -15.246889 22.552490 -5.095863 6.195766 -0.057700 -8.965124 
1.766711 0.635765 0.989697 -88.952462 2.882034 85.359447 1.219679 -0.846547 7.798013 -2.247701 -15.621790 2.892998 4.575044 8.386116 -16.316522 0.000000 -0.000000 0.000000 4.344861 -2.384820 6.137411 4.008305 1.137574 4.746800 2.983760 -5.141109 -11.567925 0.000000 -0.000000 0.000000 -1.284846 2.055697 6.295896 1.618251 -1.390207 1.905942 1.052999 -1.672536 5.819747 5.740431 -2.396559 -1.847568 4.098298 -7.363417 6.007585 -26.440366 8.408673 1.120577 -61.256961 -5.629360 6.817880 11.280288 -25.259551 1.193194 -2.217065 -0.825433 -9.977140 24.495769 -6.302606 -1.640787 62.121290 -1.101102 10.137556 -15.204062 23.256827 -5.065381 6.183288 -0.088539 -8.842865 
1.767147 0.635919 0.989915 -89.021674 2.852312 85.367139 1.178628 -0.823903 7.704178 -2.230793 -15.513605 2.964255 4.484833 8.392997 -16.341261 0.000000 -0.000000 0.000000 4.370410 -2.265470 6.124130 3.928792 1.179309 4.695917 3.034533 -5.198925 -11.570840 0.000000 -0.000000 0.000000 -1.272366 1.974666 6.458704 1.615677 -1.456714 1.646485 1.058480 -1.747055 5.697378 5.710836 -2.527645 -1.998815 3.665675 -7.364480 6.615514 -26.540876 8.374819 1.186694 -61.171483 -5.701014 6.805001 11.234218 -25.491892 1.092040 -2.033665 -0.777991 -9.964818 24.420199 -6.261840 -1.623900 62.078321 -1.087563 10.207803 -15.228617 23.852889 -5.365313 6.191439 0.097994 -9.216751 
1.767313 0.636197 0.989966 -89.145797 2.821501 85.425919 1.150628 -0.663522 7.589772 -2.230141 -15.497480 3.056589 4.579707 8.363034 -16.447759 0.000000 -0.000000 0.000000 4.266145 -2.433179 5.977615 3.996808 1.234127 4.812322 3.049392 -5.040732 -11.528562 0.000000 -0.000000 0.000000 -1.269009 1.988976 6.397212 1.629707 -1.500912 1.587907 1.056228 -1.766019 5.627590 5.556020 -2.523144 -1.684434 3.806342 -7.203007 6.242292 -26.540990 8.246416 1.186251 -61.204897 -5.643696 6.822281 11.302070 -25.732522 1.247012 -2.075751 -0.921722 -10.014712 24.390445 -6.306471 -1.777302 62.031252 -1.120762 10.178817 -15.308749 24.669148 -5.279495 6.113866 0.126278 -9.175682 
1.767600 0.636766 0.990042 -89.146430 2.838378 85.450192 1.225252 -0.669665 7.488775 -2.265195 -15.515226 3.156595 4.487658 8.321035 -16.479337 0.000000 -0.000000 0.000000 4.306098 -2.521906 5.913330 3.991259 1.347135 4.866046 3.068962 -4.950958 -11.449581 0.000000 -0.000000 0.000000 -1.276859 1.951307 6.384267 1.665270 -1.603541 1.629812 1.049742 -1.802498 5.583222 5.470158 -2.382984 -1.651053 3.808960 -7.157336 6.411630 -26.488381 8.199881 1.187431 -61.242688 -5.680792 6.823702 11.289518 -25.990270 1.300417 -1.765429 -0.940883 -9.805338 24.377575 -6.354513 -1.871233 62.023091 -0.990862 10.221756 -15.393038 25.633936 -5.358843 6.028066 0.614133 -9.292337 
1.767782 0.637094 0.990098 -89.130222 2.844399 85.441979 1.244877 -0.696175 7.419315 -2.268776 -15.344784 3.271499 4.585265 8.293905 -16.423229 0.000000 -0.000000 0.000000 4.338121 -2.487370 5.915246 3.965728 1.252453 4.886389 3.000857 -4.972419 -11.462886 0.000000 -0.000000 0.000000 -1.281387 1.918309 6.351135 1.685901 -1.671628 1.672352 1.047830 -1.888597 5.514637 5.416655 -2.194701 -1.433739 4.009728 -6.987731 6.292859 -26.400787 8.118739 1.265118 -61.298468 -5.665998 6.821313 11.268497 -26.325040 1.347588 -1.827946 -0.985122 -9.851166 24.261575 -6.345157 -1.830375 62.130936 -0.859121 10.270837 -15.530076 26.381650 -5.173406 6.062886 0.500720 -9.227121 
1.767940 0.637393 0.990186 -89.216537 2.812411 85.532619 1.227768 -0.722704 7.362358 -2.267731 -15.363149 3.180144 4.496393 8.295356 -16.294923 0.000000 -0.000000 0.000000 4.360502 -2.354754 5.774850 3.919803 1.256584 4.895953 3.017493 -5.003367 -11.425134 0.000000 -0.000000 0.000000 -1.269816 1.801185 6.237698 1.619135 -1.716804 1.569461 0.995219 -1.856045 5.531329 5.362969 -1.935204 -1.280097 4.135699 -6.775766 6.271021 -26.287012 8.122381 1.315845 -61.299442 -5.621718 6.887544 11.328985 -26.392616 1.249363 -1.819980 -1.006189 -10.109797 24.256796 -6.231249 -1.769770 62.278176 -0.738329 10.479448 -15.504453 26.978745 -5.314927 6.092260 0.360774 -9.929728 
1.768125 0.637949 0.990009 -89.169065 2.821270 85.560844 1.260623 -0.698016 7.266499 -2.249640 -15.359643 3.240867 4.456827 8.257451 -16.312485 0.000000 -0.000000 0.000000 4.423379 -2.319912 5.693638 3.864016 1.165642 4.980020 3.033008 -4.995498 -11.395715 0.000000 -0.000000 0.000000 -1.271139 1.737509 6.373043 1.650694 -1.768350 1.331967 1.013315 -1.858233 5.411730 5.322729 -2.338483 -0.957390 3.928728 -7.009323 6.389376 -26.269482 8.168580 1.400845 -61.292900 -5.546211 6.840859 11.280001 -26.515526 1.335482 -1.825606 -0.923187 -10.055474 24.139284 -6.314418 -1.758311 62.393769 -0.676810 10.491424 -15.507232 27.597658 -5.297291 6.085874 0.503719 -10.069849 
1.768103 0.638087 0.990148 -89.154338 2.790596 85.620672 1.206208 -0.752281 7.164162 -2.211964 -15.316620 3.331393 4.446522 8.263688 -16.394994 0.000000 -0.000000 0.000000 4.433148 -2.236759 5.706266 3.823945 1.238326 4.827644 3.103411 -5.150801 -11.289836 0.000000 -0.000000 0.000000 -1.246120 1.715981 6.300723 1.642073 -1.780557 1.297773 0.985790 -1.873346 5.554555 5.513913 -2.543645 -1.609777 3.707043 -7.296678 6.360994 -26.397589 8.228082 1.150237 -61.104889 -5.535516 6.919043 11.111480 -26.442224 1.400573 -1.747336 -0.965173 -9.946095 24.216030 -6.295413 -2.040226 62.398205 -0.754234 10.748421 -15.753171 27.918647 -5.401975 5.811596 0.542902 -10.050946 
